<svg width="665" height="470" viewBox="0 0 665 470" fill="none" xmlns="http://www.w3.org/2000/svg">
<path d="M196.5 78.5H156.5V118.5H196.5V78.5Z" fill="url(#paint0_linear_147_2587)" fill-opacity="0.02"/>
<path d="M157.5 312.5H117.5V352.5H157.5V312.5Z" fill="url(#paint1_linear_147_2587)" fill-opacity="0.02"/>
<path d="M547.5 117.5H507.5V157.5H547.5V117.5Z" fill="url(#paint2_linear_147_2587)" fill-opacity="0.02"/>
<path d="M40 1H1V40M40 1V40M40 1H79M40 40H1M40 40H79M40 40V79M1 40V79M79 1V40M79 1H118M79 40H118M79 40V79M118 1V40M118 1H157M118 40H157M118 40V79M157 1V40M157 1H196M157 40H196M157 40V79M196 1V40M196 1H235M196 40H235M196 40V79M235 1V40M235 1H274M235 40H274M235 40V79M274 1V40M274 1H313M274 40H313M274 40V79M313 1V40M313 1H352M313 40H352M313 40V79M352 1V40M352 1H391M352 40H391M352 40V79M391 1V40M391 1H430M391 40H430M391 40V79M430 1V40M430 1H469M430 40H469M430 40V79M469 1V40M469 1H508M469 40H508M469 40V79M508 1V40M508 1H547M508 40H547M508 40V79M547 1V40M547 1H586M547 40H586M547 40V79M586 1V40M586 1H625M586 40H625M586 40V79M625 1V40M625 1H664V40M625 40H664M625 40V79M664 40V79M40 79H1M40 79H79M40 79V118M1 79V118M79 79H118M79 79V118M118 79H157M118 79V118M157 79H196M157 79V118M196 79H235M196 79V118M235 79H274M235 79V118M274 79H313M274 79V118M313 79H352M313 79V118M352 79H391M352 79V118M391 79H430M391 79V118M430 79H469M430 79V118M469 79H508M469 79V118M508 79H547M508 79V118M547 79H586M547 79V118M586 79H625M586 79V118M625 79H664M625 79V118M664 79V118M40 118H1M40 118H79M40 118V157M1 118V157M79 118H118M79 118V157M118 118H157M118 118V157M157 118H196M157 118V157M196 118H235M196 118V157M235 118H274M235 118V157M274 118H313M274 118V157M313 118H352M313 118V157M352 118H391M352 118V157M391 118H430M391 118V157M430 118H469M430 118V157M469 118H508M469 118V157M508 118H547M508 118V157M547 118H586M547 118V157M586 118H625M586 118V157M625 118H664M625 118V157M664 118V157M40 157H1M40 157H79M40 157V196M1 157V196M79 157H118M79 157V196M118 157H157M118 157V196M157 157H196M157 157V196M196 157H235M196 157V196M235 157H274M235 157V196M274 157H313M274 157V196M313 157H352M313 157V196M352 157H391M352 157V196M391 157H430M391 157V196M430 157H469M430 157V196M469 157H508M469 157V196M508 157H547M508 157V196M547 157H586M547 157V196M586 157H625M586 157V196M625 157H664M625 157V196M664 157V196M40 196H1M40 196H79M40 196V235M1 196V235M79 196H118M79 196V235M118 196H157M118 196V235M157 196H196M157 196V235M196 196H235M196 196V235M235 196H274M235 196V235M274 196H313M274 196V235M313 196H352M313 196V235M352 196H391M352 196V235M391 196H430M391 196V235M430 196H469M430 196V235M469 196H508M469 196V235M508 196H547M508 196V235M547 196H586M547 196V235M586 196H625M586 196V235M625 196H664M625 196V235M664 196V235M40 235H1M40 235H79M40 235V274M1 235V274M79 235H118M79 235V274M118 235H157M118 235V274M157 235H196M157 235V274M196 235H235M196 235V274M235 235H274M235 235V274M274 235H313M274 235V274M313 235H352M313 235V274M352 235H391M352 235V274M391 235H430M391 235V274M430 235H469M430 235V274M469 235H508M469 235V274M508 235H547M508 235V274M547 235H586M547 235V274M586 235H625M586 235V274M625 235H664M625 235V274M664 235V274M40 274H1M40 274H79M40 274V313M1 274V313M79 274H118M79 274V313M118 274H157M118 274V313M157 274H196M157 274V313M196 274H235M196 274V313M235 274H274M235 274V313M274 274H313M274 274V313M313 274H352M313 274V313M352 274H391M352 274V313M391 274H430M391 274V313M430 274H469M430 274V313M469 274H508M469 274V313M508 274H547M508 274V313M547 274H586M547 274V313M586 274H625M586 274V313M625 274H664M625 274V313M664 274V313M40 313H1M40 313H79M40 313V352M1 313V352M79 313H118M79 313V352M118 313H157M118 313V352M157 313H196M157 313V352M196 313H235M196 313V352M235 313H274M235 313V352M274 313H313M274 313V352M313 313H352M313 313V352M352 313H391M352 313V352M391 313H430M391 313V352M430 313H469M430 313V352M469 313H508M469 313V352M508 313H547M508 313V352M547 313H586M547 313V352M586 313H625M586 313V352M625 313H664M625 313V352M664 313V352M40 352H1M40 352H79M40 352V391M1 352V391M79 352H118M79 352V391M118 352H157M118 352V391M157 352H196M157 352V391M196 352H235M196 352V391M235 352H274M235 352V391M274 352H313M274 352V391M313 352H352M313 352V391M352 352H391M352 352V391M391 352H430M391 352V391M430 352H469M430 352V391M469 352H508M469 352V391M508 352H547M508 352V391M547 352H586M547 352V391M586 352H625M586 352V391M625 352H664M625 352V391M664 352V391M40 391H1M40 391H79M40 391V430M1 391V430M79 391H118M79 391V430M118 391H157M118 391V430M157 391H196M157 391V430M196 391H235M196 391V430M235 391H274M235 391V430M274 391H313M274 391V430M313 391H352M313 391V430M352 391H391M352 391V430M391 391H430M391 391V430M430 391H469M430 391V430M469 391H508M469 391V430M508 391H547M508 391V430M547 391H586M547 391V430M586 391H625M586 391V430M625 391H664M625 391V430M664 391V430M40 430H1M40 430H79M40 430V469M1 430V469H40M79 430H118M79 430V469M118 430H157M118 430V469M157 430H196M157 430V469M196 430H235M196 430V469M235 430H274M235 430V469M274 430H313M274 430V469M313 430H352M313 430V469M352 430H391M352 430V469M391 430H430M391 430V469M430 430H469M430 430V469M469 430H508M469 430V469M508 430H547M508 430V469M547 430H586M547 430V469M586 430H625M586 430V469M625 430H664M625 430V469M664 430V469H625M40 469H79M79 469H118M118 469H157M157 469H196M196 469H235M235 469H274M274 469H313M313 469H352M352 469H391M391 469H430M430 469H469M469 469H508M508 469H547M547 469H586M586 469H625" stroke="url(#paint3_radial_147_2587)" stroke-opacity="0.08"/>
<defs>
<linearGradient id="paint0_linear_147_2587" x1="176.5" y1="78.5" x2="176.5" y2="118.5" gradientUnits="userSpaceOnUse">
<stop stop-color="white" stop-opacity="0"/>
<stop offset="1" stop-color="white"/>
</linearGradient>
<linearGradient id="paint1_linear_147_2587" x1="137.5" y1="312.5" x2="137.5" y2="352.5" gradientUnits="userSpaceOnUse">
<stop stop-color="white" stop-opacity="0"/>
<stop offset="1" stop-color="white"/>
</linearGradient>
<linearGradient id="paint2_linear_147_2587" x1="527.5" y1="117.5" x2="527.5" y2="157.5" gradientUnits="userSpaceOnUse">
<stop stop-color="white" stop-opacity="0"/>
<stop offset="1" stop-color="white"/>
</linearGradient>
<radialGradient id="paint3_radial_147_2587" cx="0" cy="0" r="1" gradientUnits="userSpaceOnUse" gradientTransform="translate(332.5 247.5) rotate(90) scale(221 332)">
<stop stop-color="white"/>
<stop offset="1" stop-color="white" stop-opacity="0"/>
</radialGradient>
</defs>
</svg>
