<svg width="1266" height="428" viewBox="0 0 1266 428" fill="none" xmlns="http://www.w3.org/2000/svg">
<path d="M145.297 333.586C145.498 333.137 145.065 332.703 144.618 332.905C144.521 332.95 144.446 333.025 144.401 333.122C144.192 333.572 144.633 334.006 145.08 333.804C145.177 333.759 145.252 333.684 145.297 333.586Z" fill="white" fill-opacity="0.1"/>
<path d="M504.489 359.586C504.691 359.137 504.257 358.703 503.808 358.905C503.711 358.95 503.636 359.025 503.591 359.122C503.389 359.572 503.823 360.006 504.272 359.804C504.369 359.759 504.444 359.684 504.489 359.586Z" fill="white" fill-opacity="0.1"/>
<path d="M426.949 316.732C427.151 316.283 426.718 315.849 426.27 316.051C426.173 316.096 426.098 316.171 426.054 316.268C425.845 316.717 426.285 317.151 426.733 316.949C426.83 316.904 426.904 316.829 426.949 316.732Z" fill="white" fill-opacity="0.1"/>
<path d="M321.633 110.826C321.842 110.377 321.401 109.943 320.953 110.145C320.856 110.19 320.782 110.264 320.737 110.362C320.535 110.811 320.968 111.245 321.416 111.043C321.513 110.998 321.588 110.923 321.633 110.826Z" fill="white" fill-opacity="0.1"/>
<path d="M386.582 99.2996C386.791 98.8518 386.35 98.4114 385.903 98.6204C385.806 98.6652 385.731 98.7398 385.686 98.8368C385.485 99.2847 385.917 99.7176 386.365 99.5161C386.462 99.4713 386.537 99.3966 386.582 99.2996Z" fill="white" fill-opacity="0.1"/>
<path d="M1143.95 6.732C1144.15 6.28297 1143.72 5.84891 1143.27 6.05097C1143.17 6.09587 1143.1 6.17071 1143.05 6.268C1142.85 6.71703 1143.28 7.15109 1143.73 6.94903C1143.83 6.90413 1143.9 6.82929 1143.95 6.732Z" fill="white" fill-opacity="0.8"/>
<path d="M808.949 377.732C809.151 377.283 808.717 376.849 808.268 377.051C808.171 377.096 808.096 377.171 808.051 377.268C807.849 377.717 808.283 378.151 808.732 377.949C808.829 377.904 808.904 377.829 808.949 377.732Z" fill="white" fill-opacity="0.8"/>
<path d="M897.92 403.355C898.129 402.906 897.688 402.472 897.24 402.674C897.143 402.719 897.069 402.794 897.024 402.891C896.822 403.34 897.255 403.774 897.703 403.572C897.8 403.527 897.875 403.452 897.92 403.355Z" fill="white" fill-opacity="0.1"/>
<path d="M1081.65 301.125C1081.86 300.676 1081.42 300.242 1080.97 300.444C1080.87 300.489 1080.8 300.564 1080.75 300.661C1080.55 301.11 1080.98 301.544 1081.43 301.342C1081.53 301.297 1081.6 301.222 1081.65 301.125Z" fill="white" fill-opacity="0.1"/>
<path d="M1124.08 138.6C1124.29 138.151 1123.85 137.717 1123.4 137.919C1123.3 137.964 1123.23 138.038 1123.18 138.136C1122.98 138.585 1123.41 139.019 1123.86 138.817C1123.96 138.772 1124.03 138.697 1124.08 138.6Z" fill="white" fill-opacity="0.1"/>
<path d="M1080.74 15.9625C1080.94 15.5134 1080.51 15.0794 1080.06 15.2814C1079.96 15.3263 1079.89 15.4012 1079.84 15.4985C1079.63 15.9475 1080.07 16.3816 1080.52 16.1795C1080.62 16.1346 1080.69 16.0597 1080.74 15.9625Z" fill="white" fill-opacity="0.1"/>
<path d="M1155.95 45.732C1156.15 45.283 1155.72 44.8489 1155.27 45.051C1155.17 45.0959 1155.1 45.1707 1155.05 45.268C1154.85 45.717 1155.28 46.1511 1155.73 45.949C1155.83 45.9041 1155.9 45.8293 1155.95 45.732Z" fill="white" fill-opacity="0.1"/>
<path d="M1073.95 69.732C1074.16 69.283 1073.72 68.8489 1073.27 69.051C1073.17 69.0959 1073.1 69.1707 1073.05 69.268C1072.85 69.717 1073.28 70.1511 1073.73 69.949C1073.83 69.9041 1073.9 69.8293 1073.95 69.732Z" fill="white" fill-opacity="0.1"/>
<path d="M1075.95 176.732C1076.16 176.283 1075.72 175.849 1075.27 176.051C1075.17 176.096 1075.1 176.171 1075.05 176.268C1074.85 176.717 1075.28 177.151 1075.73 176.949C1075.83 176.904 1075.9 176.829 1075.95 176.732Z" fill="white" fill-opacity="0.1"/>
<path d="M1233.95 193.732C1234.15 193.283 1233.72 192.849 1233.27 193.051C1233.17 193.096 1233.1 193.171 1233.05 193.268C1232.84 193.717 1233.28 194.151 1233.73 193.949C1233.83 193.904 1233.9 193.829 1233.95 193.732Z" fill="white" fill-opacity="0.1"/>
<path d="M394.949 202.732C395.151 202.283 394.718 201.849 394.27 202.051C394.173 202.096 394.098 202.171 394.054 202.268C393.845 202.717 394.285 203.151 394.733 202.949C394.83 202.904 394.904 202.829 394.949 202.732Z" fill="white" fill-opacity="0.1"/>
<path d="M647.949 351.732C648.151 351.283 647.717 350.849 647.268 351.051C647.171 351.096 647.096 351.171 647.051 351.268C646.849 351.717 647.283 352.151 647.732 351.949C647.829 351.904 647.904 351.829 647.949 351.732Z" fill="white" fill-opacity="0.1"/>
<path d="M512.325 312.774C512.534 312.324 512.094 311.89 511.646 312.092C511.549 312.137 511.474 312.212 511.429 312.31C511.228 312.759 511.661 313.193 512.108 312.991C512.205 312.946 512.28 312.871 512.325 312.774Z" fill="white" fill-opacity="0.1"/>
<path d="M257.8 372.509C258.002 372.06 257.569 371.626 257.121 371.828C257.024 371.873 256.949 371.948 256.905 372.045C256.696 372.494 257.136 372.928 257.584 372.726C257.681 372.681 257.755 372.607 257.8 372.509Z" fill="white" fill-opacity="0.1"/>
<path d="M859.946 8.73199C860.155 8.28296 859.715 7.84891 859.267 8.05097C859.17 8.09588 859.096 8.17071 859.051 8.268C858.849 8.71703 859.282 9.15109 859.73 8.94903C859.827 8.90413 859.902 8.82928 859.946 8.73199Z" fill="white" fill-opacity="0.8"/>
<path d="M396.949 405.732C397.151 405.283 396.718 404.849 396.27 405.051C396.173 405.096 396.098 405.171 396.054 405.268C395.845 405.717 396.285 406.151 396.733 405.949C396.83 405.904 396.904 405.829 396.949 405.732Z" fill="white" fill-opacity="0.8"/>
<path d="M264.946 54.732C265.155 54.283 264.715 53.8489 264.267 54.051C264.17 54.0959 264.096 54.1707 264.051 54.268C263.849 54.717 264.282 55.1511 264.73 54.949C264.827 54.9041 264.902 54.8293 264.946 54.732Z" fill="white" fill-opacity="0.1"/>
<path d="M387.949 17.732C388.151 17.283 387.718 16.8489 387.27 17.051C387.173 17.0959 387.098 17.1707 387.054 17.268C386.845 17.717 387.285 18.1511 387.733 17.949C387.83 17.9041 387.904 17.8293 387.949 17.732Z" fill="white" fill-opacity="0.8"/>
<path d="M98.949 278.732C99.1511 278.283 98.717 277.849 98.268 278.051C98.1707 278.096 98.0959 278.171 98.051 278.268C97.8489 278.717 98.283 279.151 98.732 278.949C98.8293 278.904 98.9041 278.829 98.949 278.732Z" fill="white" fill-opacity="0.8"/>
<path d="M158.568 258.878C158.777 258.429 158.337 257.995 157.889 258.197C157.792 258.242 157.717 258.317 157.672 258.414C157.471 258.864 157.904 259.298 158.352 259.096C158.449 259.051 158.523 258.976 158.568 258.878Z" fill="white" fill-opacity="0.1"/>
<path d="M166.949 142.732C167.151 142.283 166.717 141.849 166.268 142.051C166.171 142.096 166.096 142.171 166.051 142.268C165.849 142.717 166.283 143.151 166.732 142.949C166.829 142.904 166.904 142.829 166.949 142.732Z" fill="white" fill-opacity="0.1"/>
<path d="M159.949 195.732C160.151 195.283 159.718 194.849 159.27 195.051C159.173 195.096 159.098 195.171 159.054 195.268C158.845 195.717 159.285 196.151 159.733 195.949C159.83 195.904 159.904 195.829 159.949 195.732Z" fill="white" fill-opacity="0.1"/>
<path d="M249.849 409.91C250.05 409.461 249.617 409.027 249.169 409.229C249.072 409.274 248.998 409.348 248.953 409.446C248.744 409.895 249.184 410.329 249.632 410.127C249.729 410.082 249.804 410.007 249.849 409.91Z" fill="white" fill-opacity="0.8"/>
<path d="M386.239 260.462C386.441 260.013 386.007 259.579 385.558 259.781C385.46 259.826 385.385 259.901 385.341 259.998C385.138 260.447 385.573 260.881 386.022 260.679C386.119 260.634 386.194 260.559 386.239 260.462Z" fill="white" fill-opacity="0.1"/>
<path d="M352.63 220.359C352.832 219.91 352.398 219.476 351.949 219.678C351.852 219.723 351.777 219.798 351.732 219.895C351.53 220.344 351.964 220.779 352.413 220.576C352.51 220.532 352.585 220.457 352.63 220.359Z" fill="white" fill-opacity="0.8"/>
<path d="M219.268 146.949C219.717 147.151 220.151 146.718 219.949 146.27C219.904 146.173 219.829 146.098 219.732 146.054C219.283 145.845 218.849 146.285 219.051 146.733C219.096 146.83 219.171 146.904 219.268 146.949Z" fill="white" fill-opacity="0.8"/>
<path d="M261.342 297.273C261.543 296.823 261.11 296.389 260.663 296.591C260.565 296.636 260.491 296.711 260.446 296.809C260.237 297.258 260.677 297.692 261.125 297.49C261.222 297.445 261.297 297.37 261.342 297.273Z" fill="white" fill-opacity="0.1"/>
<path d="M576.949 340.732C577.151 340.283 576.718 339.849 576.27 340.051C576.173 340.096 576.098 340.171 576.054 340.268C575.845 340.717 576.285 341.151 576.733 340.949C576.83 340.904 576.904 340.829 576.949 340.732Z" fill="white" fill-opacity="0.1"/>
<path d="M715.949 417.73C716.151 417.282 715.718 416.849 715.27 417.051C715.173 417.096 715.098 417.17 715.054 417.267C714.845 417.715 715.285 418.155 715.733 417.946C715.83 417.902 715.904 417.827 715.949 417.73Z" fill="white" fill-opacity="0.1"/>
<path d="M647.949 386.732C648.151 386.283 647.717 385.849 647.268 386.051C647.171 386.096 647.096 386.171 647.051 386.268C646.849 386.717 647.283 387.151 647.732 386.949C647.829 386.904 647.904 386.829 647.949 386.732Z" fill="white" fill-opacity="0.8"/>
<path d="M950.405 247.695C950.606 247.246 950.173 246.812 949.726 247.014C949.628 247.059 949.554 247.134 949.509 247.231C949.3 247.68 949.74 248.114 950.188 247.912C950.285 247.867 950.36 247.792 950.405 247.695Z" fill="white" fill-opacity="0.8"/>
<path d="M379.398 88.5215C379.599 88.0725 379.167 87.6385 378.719 87.8405C378.622 87.8854 378.547 87.9603 378.502 88.0576C378.293 88.5066 378.734 88.9406 379.181 88.7386C379.278 88.6937 379.353 88.6188 379.398 88.5215Z" fill="white" fill-opacity="0.1"/>
<path d="M1022.25 107.756C1022.45 107.307 1022.02 106.873 1021.57 107.075C1021.47 107.12 1021.4 107.195 1021.35 107.292C1021.14 107.741 1021.59 108.175 1022.03 107.973C1022.13 107.928 1022.2 107.853 1022.25 107.756Z" fill="white" fill-opacity="0.1"/>
<path d="M1036.97 25.1666C1037.17 24.7187 1036.74 24.2858 1036.29 24.4874C1036.2 24.5321 1036.12 24.6068 1036.08 24.7038C1035.87 25.1516 1036.31 25.592 1036.76 25.383C1036.85 25.3382 1036.93 25.2636 1036.97 25.1666Z" fill="white" fill-opacity="0.1"/>
<path d="M968.048 207.22C968.249 206.771 967.816 206.337 967.369 206.539C967.272 206.584 967.197 206.659 967.152 206.756C966.943 207.205 967.384 207.639 967.831 207.437C967.928 207.392 968.003 207.317 968.048 207.22Z" fill="white" fill-opacity="0.1"/>
<path d="M96.9492 8.73004C97.1507 8.28222 96.7178 7.84931 96.27 8.05084C96.1729 8.09562 96.0983 8.17026 96.0535 8.26729C95.8445 8.71512 96.2849 9.15548 96.7327 8.9465C96.8297 8.90172 96.9044 8.82707 96.9492 8.73004Z" fill="white" fill-opacity="0.1"/>
<path d="M1160.73 78.0535C1160.28 77.8445 1159.85 78.2849 1160.05 78.7327C1160.1 78.8297 1160.17 78.9044 1160.27 78.9492C1160.72 79.1507 1161.15 78.7178 1160.95 78.27C1160.9 78.1729 1160.83 78.0983 1160.73 78.0535Z" fill="white" fill-opacity="0.1"/>
<path d="M656.946 19.732C657.155 19.283 656.715 18.8489 656.267 19.051C656.17 19.0959 656.096 19.1707 656.051 19.268C655.849 19.717 656.282 20.1511 656.73 19.949C656.827 19.9041 656.902 19.8293 656.946 19.732Z" fill="white" fill-opacity="0.1"/>
<path d="M504.597 281.184C504.8 280.735 504.365 280.301 503.916 280.503C503.819 280.548 503.744 280.623 503.699 280.72C503.497 281.169 503.931 281.603 504.38 281.401C504.478 281.356 504.553 281.281 504.597 281.184Z" fill="white" fill-opacity="0.1"/>
<path d="M565.027 32.0631C565.229 31.6152 564.796 31.1823 564.348 31.3838C564.251 31.4286 564.176 31.5033 564.132 31.6003C563.923 32.0481 564.363 32.4885 564.811 32.2795C564.908 32.2347 564.983 32.1601 565.027 32.0631Z" fill="white" fill-opacity="0.1"/>
<path d="M994.946 312.732C995.155 312.283 994.715 311.849 994.267 312.051C994.17 312.096 994.096 312.171 994.051 312.268C993.849 312.717 994.282 313.151 994.73 312.949C994.827 312.904 994.902 312.829 994.946 312.732Z" fill="white" fill-opacity="0.8"/>
<path d="M144.108 46.8829C144.317 46.4339 143.877 45.9998 143.429 46.2019C143.332 46.2468 143.257 46.3216 143.212 46.4189C143.011 46.8679 143.444 47.302 143.892 47.0999C143.989 47.055 144.063 46.9802 144.108 46.8829Z" fill="white" fill-opacity="0.8"/>
<path d="M0.949028 57.732C1.15109 57.283 0.717025 56.8489 0.26799 57.051C0.1707 57.0959 0.0958773 57.1707 0.0509739 57.268C-0.151091 57.717 0.282955 58.1511 0.731989 57.949C0.829279 57.9041 0.904125 57.8293 0.949028 57.732Z" fill="white" fill-opacity="0.1"/>
<path d="M148.309 94.8956C148.511 94.4465 148.077 94.0125 147.628 94.2145C147.531 94.2594 147.456 94.3343 147.411 94.4316C147.209 94.8806 147.643 95.3147 148.092 95.1126C148.19 95.0677 148.264 94.9929 148.309 94.8956Z" fill="white" fill-opacity="0.1"/>
<path d="M450.59 32.732C450.792 32.283 450.358 31.8489 449.909 32.051C449.812 32.0959 449.737 32.1707 449.692 32.268C449.49 32.717 449.924 33.1511 450.373 32.949C450.47 32.9041 450.545 32.8293 450.59 32.732Z" fill="white" fill-opacity="0.1"/>
<path d="M475.341 427.298C475.55 426.849 475.109 426.415 474.661 426.617C474.564 426.662 474.49 426.737 474.445 426.834C474.243 427.283 474.676 427.717 475.124 427.515C475.221 427.47 475.296 427.395 475.341 427.298V427.298Z" fill="white" fill-opacity="0.1"/>
<path d="M1115.95 413.732C1116.15 413.283 1115.72 412.849 1115.27 413.051C1115.17 413.096 1115.1 413.171 1115.05 413.268C1114.85 413.717 1115.28 414.151 1115.73 413.949C1115.83 413.904 1115.9 413.829 1115.95 413.732Z" fill="white" fill-opacity="0.1"/>
<path d="M799.633 68.1802C799.835 67.7312 799.402 67.2972 798.954 67.4992C798.857 67.5441 798.782 67.619 798.738 67.7162C798.529 68.1653 798.969 68.5993 799.417 68.3973C799.514 68.3524 799.588 68.2775 799.633 68.1802Z" fill="white" fill-opacity="0.1"/>
<path d="M840.021 38.3599C840.23 37.9109 839.79 37.4768 839.342 37.6789C839.245 37.7238 839.17 37.7986 839.126 37.8959C838.924 38.345 839.357 38.779 839.805 38.577C839.902 38.5321 839.976 38.4572 840.021 38.3599Z" fill="white" fill-opacity="0.1"/>
<path d="M182.949 232.732C183.151 232.283 182.718 231.849 182.27 232.051C182.173 232.096 182.098 232.171 182.054 232.268C181.845 232.717 182.285 233.151 182.733 232.949C182.83 232.904 182.904 232.829 182.949 232.732Z" fill="white" fill-opacity="0.1"/>
<path d="M431.581 86.627C431.783 86.178 431.349 85.7439 430.9 85.946C430.803 85.9909 430.728 86.0657 430.683 86.163C430.481 86.6121 430.915 87.0461 431.364 86.844C431.461 86.7991 431.536 86.7243 431.581 86.627Z" fill="white" fill-opacity="0.1"/>
<path d="M894.751 314.203C894.96 313.754 894.52 313.32 894.072 313.522C893.975 313.567 893.9 313.642 893.856 313.739C893.654 314.188 894.087 314.622 894.535 314.42C894.632 314.375 894.706 314.3 894.751 314.203Z" fill="white" fill-opacity="0.1"/>
<path d="M1109.95 260.732C1110.16 260.283 1109.72 259.849 1109.27 260.051C1109.17 260.096 1109.1 260.171 1109.05 260.268C1108.85 260.717 1109.28 261.151 1109.73 260.949C1109.83 260.904 1109.9 260.829 1109.95 260.732Z" fill="white" fill-opacity="0.8"/>
<path d="M1122.02 203.243C1122.22 202.794 1121.79 202.36 1121.34 202.562C1121.24 202.607 1121.17 202.682 1121.12 202.779C1120.92 203.228 1121.35 203.662 1121.8 203.46C1121.9 203.415 1121.97 203.341 1122.02 203.243Z" fill="white" fill-opacity="0.1"/>
<path d="M361.051 167.732C360.849 167.283 361.283 166.849 361.732 167.051C361.829 167.096 361.904 167.171 361.949 167.268C362.151 167.717 361.717 168.151 361.268 167.949C361.171 167.904 361.096 167.829 361.051 167.732Z" fill="white" fill-opacity="0.1"/>
<path d="M680.051 373.732C679.849 373.283 680.283 372.849 680.732 373.051C680.829 373.096 680.904 373.171 680.949 373.268C681.151 373.717 680.717 374.151 680.268 373.949C680.171 373.904 680.096 373.829 680.051 373.732Z" fill="white" fill-opacity="0.1"/>
<path d="M302.051 358.709C301.849 358.26 302.282 357.825 302.73 358.028C302.827 358.072 302.902 358.147 302.946 358.245C303.155 358.694 302.715 359.128 302.267 358.926C302.17 358.881 302.096 358.806 302.051 358.709Z" fill="white" fill-opacity="0.1"/>
<path d="M586.051 375.732C585.849 375.283 586.283 374.849 586.732 375.051C586.829 375.096 586.904 375.171 586.949 375.268C587.151 375.717 586.717 376.151 586.268 375.949C586.171 375.904 586.096 375.829 586.051 375.732Z" fill="white" fill-opacity="0.1"/>
<path d="M715.051 389.73C714.849 389.282 715.282 388.849 715.73 389.051C715.827 389.096 715.902 389.17 715.946 389.267C716.155 389.715 715.715 390.155 715.267 389.946C715.17 389.902 715.096 389.827 715.051 389.73Z" fill="white" fill-opacity="0.1"/>
<path d="M259.957 272.795C259.756 272.346 260.188 271.912 260.636 272.114C260.733 272.159 260.808 272.234 260.853 272.331C261.062 272.78 260.621 273.214 260.174 273.012C260.077 272.967 260.002 272.892 259.957 272.795Z" fill="white" fill-opacity="0.1"/>
<path d="M203.268 110.054C203.717 109.845 204.151 110.285 203.949 110.733C203.904 110.83 203.829 110.904 203.732 110.949C203.283 111.151 202.849 110.718 203.051 110.27C203.096 110.173 203.171 110.098 203.268 110.054Z" fill="white" fill-opacity="0.1"/>
<path d="M114.051 260.975C113.849 260.526 114.282 260.092 114.73 260.294C114.827 260.339 114.902 260.413 114.946 260.511C115.155 260.96 114.715 261.394 114.267 261.192C114.17 261.147 114.096 261.072 114.051 260.975Z" fill="white" fill-opacity="0.1"/>
<path d="M919.338 31.899C919.129 31.45 919.57 31.0159 920.017 31.218C920.114 31.2629 920.189 31.3377 920.234 31.435C920.435 31.884 920.002 32.3181 919.555 32.116C919.458 32.0711 919.383 31.9963 919.338 31.899Z" fill="white" fill-opacity="0.8"/>
<path d="M1034.55 301.188C1034.35 300.74 1034.79 300.3 1035.23 300.509C1035.33 300.553 1035.41 300.628 1035.45 300.725C1035.65 301.173 1035.22 301.606 1034.77 301.404C1034.67 301.359 1034.6 301.285 1034.55 301.188Z" fill="white" fill-opacity="0.1"/>
<path d="M1071.33 345.701C1071.12 345.252 1071.56 344.818 1072.01 345.02C1072.11 345.065 1072.18 345.139 1072.23 345.237C1072.43 345.686 1072 346.12 1071.55 345.918C1071.45 345.873 1071.38 345.798 1071.33 345.701Z" fill="white" fill-opacity="0.8"/>
<path d="M1162.05 126.732C1161.85 126.283 1162.28 125.849 1162.73 126.051C1162.83 126.096 1162.9 126.171 1162.95 126.268C1163.16 126.717 1162.72 127.151 1162.27 126.949C1162.17 126.904 1162.1 126.829 1162.05 126.732Z" fill="white" fill-opacity="0.1"/>
<path d="M1138.49 98.4034C1138.28 97.9544 1138.72 97.5203 1139.16 97.7224C1139.26 97.7673 1139.34 97.8421 1139.38 97.9394C1139.58 98.3884 1139.15 98.8225 1138.7 98.6204C1138.61 98.5755 1138.53 98.5007 1138.49 98.4034Z" fill="white" fill-opacity="0.8"/>
<path d="M1069.05 233.732C1068.84 233.283 1069.28 232.849 1069.73 233.051C1069.83 233.096 1069.9 233.171 1069.95 233.268C1070.15 233.717 1069.72 234.151 1069.27 233.949C1069.17 233.904 1069.1 233.829 1069.05 233.732Z" fill="white" fill-opacity="0.1"/>
<path d="M762.051 0.732002C761.849 0.282973 762.282 -0.151092 762.73 0.0509715C762.827 0.0958745 762.902 0.170708 762.946 0.267997C763.155 0.717027 762.715 1.15109 762.267 0.949028C762.17 0.904125 762.096 0.829292 762.051 0.732002Z" fill="white" fill-opacity="0.1"/>
<path d="M738.414 11.2095C738.212 10.7605 738.646 10.3264 739.095 10.5285C739.193 10.5734 739.267 10.6483 739.312 10.7455C739.514 11.1946 739.08 11.6286 738.631 11.4266C738.534 11.3817 738.459 11.3068 738.414 11.2095Z" fill="white" fill-opacity="0.1"/>
<path d="M187.014 340.731C186.812 340.282 187.246 339.847 187.695 340.05C187.793 340.094 187.868 340.169 187.912 340.267C188.114 340.716 187.68 341.15 187.231 340.948C187.134 340.903 187.059 340.828 187.014 340.731Z" fill="white" fill-opacity="0.1"/>
<path d="M65.0535 217.733C64.8445 217.285 65.2849 216.845 65.7327 217.054C65.8297 217.098 65.9044 217.173 65.9492 217.27C66.1507 217.718 65.7178 218.151 65.27 217.949C65.1729 217.904 65.0983 217.83 65.0535 217.733Z" fill="white" fill-opacity="0.1"/>
<path d="M100.045 197.155C99.8362 196.706 100.277 196.272 100.724 196.474C100.821 196.519 100.896 196.594 100.941 196.691C101.142 197.14 100.709 197.574 100.262 197.372C100.165 197.327 100.09 197.252 100.045 197.155Z" fill="white" fill-opacity="0.8"/>
<path d="M275.212 219.883C275.011 219.434 275.444 219 275.892 219.202C275.989 219.247 276.063 219.322 276.108 219.419C276.317 219.868 275.877 220.302 275.429 220.1C275.332 220.055 275.257 219.98 275.212 219.883Z" fill="white" fill-opacity="0.1"/>
<path d="M23.0508 112.732C22.8493 112.283 23.2822 111.849 23.7301 112.051C23.8271 112.096 23.9017 112.171 23.9465 112.268C24.1555 112.717 23.7151 113.151 23.2673 112.949C23.1703 112.904 23.0956 112.829 23.0508 112.732Z" fill="white" fill-opacity="0.1"/>
<path d="M1181.98 170.688C1181.78 170.239 1182.21 169.805 1182.66 170.007C1182.76 170.052 1182.83 170.127 1182.88 170.224C1183.08 170.673 1182.64 171.107 1182.2 170.905C1182.1 170.86 1182.02 170.785 1181.98 170.688Z" fill="white" fill-opacity="0.1"/>
<path d="M1227.07 136.181C1226.62 136.384 1226.19 135.949 1226.39 135.5C1226.44 135.403 1226.51 135.328 1226.61 135.283C1227.06 135.081 1227.49 135.515 1227.29 135.964C1227.24 136.062 1227.17 136.137 1227.07 136.181Z" fill="white" fill-opacity="0.8"/>
<path d="M1202.73 103.946C1202.28 104.155 1201.85 103.715 1202.05 103.267C1202.1 103.17 1202.17 103.096 1202.27 103.051C1202.72 102.849 1203.15 103.282 1202.95 103.73C1202.9 103.827 1202.83 103.902 1202.73 103.946Z" fill="white" fill-opacity="0.1"/>
<path d="M810.88 19.1622C810.678 18.7131 811.112 18.2791 811.561 18.4811C811.658 18.5261 811.733 18.6009 811.778 18.6982C811.98 19.1472 811.546 19.5813 811.097 19.3792C811 19.3343 810.925 19.2595 810.88 19.1622Z" fill="white" fill-opacity="0.1"/>
<path d="M210.321 204.641C210.12 204.192 210.553 203.758 211.001 203.96C211.098 204.005 211.172 204.079 211.217 204.177C211.426 204.626 210.986 205.06 210.538 204.858C210.441 204.813 210.366 204.738 210.321 204.641Z" fill="white" fill-opacity="0.1"/>
<path d="M506.051 11.732C505.849 11.283 506.283 10.8489 506.732 11.051C506.829 11.0959 506.904 11.1707 506.949 11.268C507.151 11.717 506.717 12.1511 506.268 11.949C506.171 11.9041 506.096 11.8293 506.051 11.732Z" fill="white" fill-opacity="0.1"/>
<path d="M453.399 69.7296C453.198 69.2805 453.631 68.8465 454.079 69.0485C454.176 69.0934 454.25 69.1683 454.295 69.2656C454.504 69.7146 454.064 70.1487 453.616 69.9466C453.519 69.9017 453.444 69.8269 453.399 69.7296Z" fill="white" fill-opacity="0.1"/>
<path d="M547.729 70.0133C547.527 69.5642 547.961 69.1302 548.41 69.3322C548.507 69.3771 548.582 69.452 548.627 69.5492C548.829 69.9983 548.395 70.4323 547.946 70.2303C547.848 70.1854 547.774 70.1105 547.729 70.0133Z" fill="white" fill-opacity="0.1"/>
<path d="M383.576 362.529C383.374 362.08 383.808 361.646 384.257 361.848C384.354 361.893 384.429 361.968 384.474 362.065C384.676 362.514 384.242 362.948 383.793 362.746C383.696 362.701 383.621 362.626 383.576 362.529Z" fill="white" fill-opacity="0.1"/>
<path d="M1064.56 367.714C1064.35 367.265 1064.79 366.831 1065.24 367.033C1065.33 367.078 1065.41 367.153 1065.45 367.25C1065.65 367.699 1065.22 368.134 1064.77 367.931C1064.68 367.887 1064.6 367.812 1064.56 367.714Z" fill="white" fill-opacity="0.8"/>
<path d="M554.051 386.732C553.849 386.283 554.283 385.849 554.732 386.051C554.829 386.096 554.904 386.171 554.949 386.268C555.151 386.717 554.717 387.151 554.268 386.949C554.171 386.904 554.096 386.829 554.051 386.732Z" fill="white" fill-opacity="0.1"/>
<path d="M622.051 415.732C621.849 415.283 622.283 414.849 622.732 415.051C622.829 415.096 622.904 415.171 622.949 415.268C623.151 415.717 622.717 416.151 622.268 415.949C622.171 415.904 622.096 415.829 622.051 415.732Z" fill="white" fill-opacity="0.8"/>
<path d="M743.633 347.493C743.43 347.044 743.865 346.61 744.314 346.812C744.411 346.857 744.486 346.931 744.531 347.029C744.733 347.478 744.299 347.912 743.85 347.71C743.752 347.665 743.677 347.59 743.633 347.493Z" fill="white" fill-opacity="0.8"/>
<path d="M502.051 391.732C501.849 391.283 502.283 390.849 502.732 391.051C502.829 391.096 502.904 391.171 502.949 391.268C503.151 391.717 502.717 392.151 502.268 391.949C502.171 391.904 502.096 391.829 502.051 391.732Z" fill="white" fill-opacity="0.8"/>
<path d="M543.051 426.732C542.849 426.283 543.282 425.849 543.73 426.051C543.827 426.096 543.902 426.171 543.946 426.268C544.155 426.717 543.715 427.151 543.267 426.949C543.17 426.904 543.096 426.829 543.051 426.732V426.732Z" fill="white" fill-opacity="0.1"/>
<path d="M269.051 84.732C268.849 84.283 269.282 83.8489 269.73 84.051C269.827 84.0959 269.902 84.1707 269.946 84.268C270.155 84.717 269.715 85.1511 269.267 84.949C269.17 84.9041 269.096 84.8293 269.051 84.732Z" fill="white" fill-opacity="0.1"/>
<path d="M857.39 353.715C857.188 353.266 857.621 352.832 858.069 353.034C858.166 353.079 858.241 353.154 858.285 353.251C858.494 353.7 858.054 354.134 857.606 353.932C857.509 353.888 857.434 353.813 857.39 353.715Z" fill="white" fill-opacity="0.1"/>
<path d="M822.945 340.969C822.736 340.52 823.176 340.086 823.624 340.288C823.721 340.333 823.795 340.408 823.84 340.505C824.042 340.954 823.609 341.388 823.161 341.186C823.064 341.141 822.989 341.067 822.945 340.969Z" fill="white" fill-opacity="0.1"/>
<path d="M998.054 160.733C997.845 160.285 998.285 159.845 998.733 160.054C998.83 160.098 998.904 160.173 998.949 160.27C999.151 160.718 998.718 161.151 998.27 160.949C998.173 160.904 998.098 160.83 998.054 160.733Z" fill="white" fill-opacity="0.1"/>
<path d="M929.69 58.2398C929.488 57.7908 929.922 57.3567 930.371 57.5588C930.468 57.6037 930.543 57.6785 930.588 57.7758C930.79 58.2248 930.356 58.6589 929.907 58.4568C929.809 58.4119 929.735 58.3371 929.69 58.2398Z" fill="white" fill-opacity="0.8"/>
<path d="M877.051 71.732C876.849 71.283 877.282 70.8489 877.73 71.051C877.827 71.0959 877.902 71.1707 877.946 71.268C878.155 71.717 877.715 72.1511 877.267 71.949C877.17 71.9041 877.096 71.8293 877.051 71.732Z" fill="white" fill-opacity="0.1"/>
<path d="M948.894 353.397C948.692 352.948 949.126 352.514 949.575 352.716C949.672 352.761 949.747 352.836 949.792 352.933C949.994 353.382 949.56 353.816 949.111 353.614C949.013 353.569 948.939 353.494 948.894 353.397Z" fill="white" fill-opacity="0.1"/>
<path d="M935.47 93.5904C935.261 93.1414 935.701 92.7073 936.149 92.9094C936.246 92.9543 936.32 93.0291 936.365 93.1264C936.567 93.5754 936.134 94.0095 935.686 93.8074C935.589 93.7625 935.514 93.6877 935.47 93.5904Z" fill="white" fill-opacity="0.1"/>
<path d="M992.051 54.7301C991.849 54.2822 992.282 53.8493 992.73 54.0508C992.827 54.0956 992.902 54.1703 992.946 54.2673C993.155 54.7151 992.715 55.1555 992.267 54.9465C992.17 54.9017 992.096 54.8271 992.051 54.7301Z" fill="white" fill-opacity="0.1"/>
<path d="M1038.6 243.996C1038.4 243.547 1038.83 243.113 1039.28 243.315C1039.38 243.36 1039.45 243.435 1039.5 243.532C1039.71 243.981 1039.27 244.415 1038.82 244.213C1038.72 244.168 1038.65 244.093 1038.6 243.996Z" fill="white" fill-opacity="0.1"/>
<path d="M1012.81 196.254C1012.61 195.805 1013.04 195.371 1013.49 195.573C1013.59 195.618 1013.66 195.693 1013.71 195.79C1013.91 196.239 1013.48 196.673 1013.03 196.471C1012.93 196.426 1012.85 196.351 1012.81 196.254Z" fill="white" fill-opacity="0.1"/>
<path d="M1126.05 310.732C1125.84 310.283 1126.28 309.849 1126.73 310.051C1126.83 310.096 1126.9 310.171 1126.95 310.268C1127.15 310.717 1126.72 311.151 1126.27 310.949C1126.17 310.904 1126.1 310.829 1126.05 310.732Z" fill="white" fill-opacity="0.1"/>
<path d="M990.051 271.732C989.849 271.283 990.282 270.849 990.73 271.051C990.827 271.096 990.902 271.171 990.946 271.268C991.155 271.717 990.715 272.151 990.267 271.949C990.17 271.904 990.096 271.829 990.051 271.732Z" fill="white" fill-opacity="0.1"/>
<path d="M1156.76 279.412C1156.56 278.963 1156.99 278.529 1157.44 278.731C1157.53 278.776 1157.61 278.85 1157.65 278.948C1157.86 279.397 1157.42 279.831 1156.97 279.629C1156.88 279.584 1156.8 279.509 1156.76 279.412Z" fill="white" fill-opacity="0.1"/>
<path d="M205.898 279.488C205.697 279.039 206.13 278.605 206.578 278.807C206.675 278.852 206.749 278.927 206.794 279.024C207.003 279.473 206.563 279.907 206.115 279.705C206.018 279.66 205.943 279.586 205.898 279.488Z" fill="white" fill-opacity="0.1"/>
<path d="M999.218 357.774C999.016 357.324 999.45 356.89 999.899 357.092C999.997 357.137 1000.07 357.212 1000.12 357.31C1000.32 357.759 999.885 358.193 999.435 357.991C999.338 357.946 999.263 357.871 999.218 357.774Z" fill="white" fill-opacity="0.1"/>
<path d="M760.051 386.732C759.849 386.283 760.283 385.849 760.732 386.051C760.829 386.096 760.904 386.171 760.949 386.268C761.151 386.717 760.717 387.151 760.268 386.949C760.171 386.904 760.096 386.829 760.051 386.732Z" fill="white" fill-opacity="0.1"/>
<path d="M983.905 405.91C983.696 405.461 984.136 405.027 984.584 405.229C984.681 405.274 984.755 405.348 984.8 405.446C985.002 405.895 984.569 406.329 984.121 406.127C984.024 406.082 983.949 406.007 983.905 405.91Z" fill="white" fill-opacity="0.8"/>
<path d="M854.095 103.732C854.304 103.283 853.864 102.849 853.416 103.051C853.319 103.096 853.245 103.171 853.2 103.268C852.998 103.717 853.431 104.151 853.879 103.949C853.976 103.904 854.051 103.829 854.095 103.732Z" fill="white" fill-opacity="0.8"/>
<path d="M975.098 204.732C975.3 204.283 974.866 203.849 974.417 204.051C974.32 204.096 974.245 204.171 974.2 204.268C973.998 204.717 974.432 205.151 974.881 204.949C974.978 204.904 975.053 204.829 975.098 204.732Z" fill="white" fill-opacity="0.1"/>
<path d="M930.48 136.701C930.271 136.252 930.712 135.818 931.159 136.02C931.257 136.065 931.331 136.139 931.376 136.237C931.577 136.686 931.145 137.12 930.697 136.918C930.6 136.873 930.525 136.798 930.48 136.701Z" fill="white" fill-opacity="0.8"/>
<path d="M923.706 158.714C923.497 158.265 923.937 157.831 924.385 158.033C924.482 158.078 924.557 158.153 924.602 158.25C924.803 158.699 924.37 159.134 923.922 158.931C923.825 158.887 923.751 158.812 923.706 158.714Z" fill="white" fill-opacity="0.8"/>
<path d="M985.202 101.732C984.993 101.283 985.434 100.849 985.882 101.051C985.979 101.096 986.053 101.171 986.098 101.268C986.3 101.717 985.867 102.151 985.419 101.949C985.322 101.904 985.247 101.829 985.202 101.732Z" fill="white" fill-opacity="0.1"/>
<path d="M858.367 148.774C858.165 148.324 858.599 147.89 859.048 148.092C859.146 148.137 859.221 148.212 859.265 148.31C859.467 148.759 859.033 149.193 858.584 148.991C858.487 148.946 858.412 148.871 858.367 148.774Z" fill="white" fill-opacity="0.1"/>
<path d="M843.054 196.91C842.845 196.461 843.285 196.027 843.733 196.229C843.83 196.274 843.904 196.348 843.949 196.446C844.151 196.895 843.718 197.329 843.27 197.127C843.173 197.082 843.098 197.007 843.054 196.91Z" fill="white" fill-opacity="0.8"/>
<path d="M928.232 291.744C928.023 291.295 928.464 290.861 928.911 291.063C929.008 291.108 929.083 291.182 929.128 291.28C929.329 291.729 928.897 292.163 928.449 291.961C928.352 291.916 928.277 291.841 928.232 291.744Z" fill="white" fill-opacity="0.1"/>
<path d="M1184.87 234.99C1184.67 234.541 1185.1 234.107 1185.55 234.309C1185.64 234.354 1185.72 234.429 1185.76 234.526C1185.97 234.975 1185.53 235.409 1185.09 235.207C1184.99 235.162 1184.91 235.087 1184.87 234.99Z" fill="white" fill-opacity="0.1"/>
<path d="M1265.73 76.9465C1265.28 77.1555 1264.85 76.7151 1265.05 76.2673C1265.1 76.1703 1265.17 76.0956 1265.27 76.0508C1265.72 75.8493 1266.15 76.2822 1265.95 76.73C1265.9 76.8271 1265.83 76.9017 1265.73 76.9465Z" fill="white" fill-opacity="0.1"/>
<path d="M776.265 140.732C776.467 140.283 776.033 139.849 775.584 140.051C775.487 140.096 775.412 140.171 775.367 140.268C775.165 140.717 775.599 141.151 776.048 140.949C776.145 140.904 776.22 140.829 776.265 140.732Z" fill="white" fill-opacity="0.8"/>
<path d="M756.393 272.6C756.602 272.151 756.161 271.717 755.714 271.919C755.617 271.964 755.542 272.038 755.497 272.136C755.296 272.585 755.729 273.019 756.176 272.817C756.273 272.772 756.348 272.697 756.393 272.6Z" fill="white" fill-opacity="0.1"/>
<path d="M713.054 149.962C713.255 149.513 712.822 149.079 712.374 149.281C712.277 149.326 712.203 149.401 712.158 149.498C711.949 149.947 712.389 150.382 712.837 150.179C712.934 150.135 713.009 150.06 713.054 149.962Z" fill="white" fill-opacity="0.1"/>
<path d="M788.265 179.732C788.467 179.283 788.033 178.849 787.584 179.051C787.487 179.096 787.412 179.171 787.367 179.268C787.165 179.717 787.599 180.151 788.048 179.949C788.145 179.904 788.22 179.829 788.265 179.732Z" fill="white" fill-opacity="0.1"/>
<path d="M538.946 238.732C539.155 238.283 538.715 237.849 538.267 238.051C538.17 238.096 538.096 238.171 538.051 238.268C537.849 238.717 538.282 239.151 538.73 238.949C538.827 238.904 538.902 238.829 538.946 238.732Z" fill="white" fill-opacity="0.1"/>
<path d="M708.262 310.732C708.471 310.283 708.031 309.849 707.583 310.051C707.486 310.096 707.412 310.171 707.367 310.268C707.165 310.717 707.598 311.151 708.046 310.949C708.143 310.904 708.218 310.829 708.262 310.732Z" fill="white" fill-opacity="0.1"/>
<path d="M866.265 327.732C866.467 327.283 866.034 326.849 865.586 327.051C865.489 327.096 865.414 327.171 865.369 327.268C865.16 327.717 865.601 328.151 866.049 327.949C866.146 327.904 866.22 327.829 866.265 327.732Z" fill="white" fill-opacity="0.1"/>
<path d="M492.262 142.732C492.471 142.283 492.031 141.849 491.583 142.051C491.486 142.096 491.412 142.171 491.367 142.268C491.165 142.717 491.598 143.151 492.046 142.949C492.143 142.904 492.218 142.829 492.262 142.732Z" fill="white" fill-opacity="0.8"/>
<path d="M487.249 276.756C487.451 276.307 487.018 275.873 486.57 276.075C486.473 276.12 486.399 276.195 486.354 276.292C486.145 276.741 486.585 277.175 487.033 276.973C487.13 276.928 487.205 276.853 487.249 276.756Z" fill="white" fill-opacity="0.1"/>
<path d="M669.289 159.167C669.49 158.719 669.057 158.286 668.609 158.487C668.512 158.532 668.438 158.607 668.393 158.704C668.184 159.152 668.624 159.592 669.072 159.383C669.169 159.338 669.244 159.264 669.289 159.167Z" fill="white" fill-opacity="0.1"/>
<path d="M600.364 341.22C600.565 340.771 600.132 340.337 599.685 340.539C599.587 340.584 599.513 340.659 599.468 340.756C599.259 341.205 599.699 341.639 600.147 341.437C600.244 341.392 600.319 341.317 600.364 341.22Z" fill="white" fill-opacity="0.1"/>
<path d="M793.048 212.054C792.599 211.845 792.165 212.285 792.367 212.733C792.412 212.83 792.487 212.904 792.584 212.949C793.033 213.151 793.467 212.718 793.265 212.27C793.22 212.173 793.145 212.098 793.048 212.054Z" fill="white" fill-opacity="0.1"/>
<path d="M431.949 202.18C432.151 201.731 431.718 201.297 431.27 201.499C431.173 201.544 431.098 201.619 431.054 201.716C430.845 202.165 431.285 202.599 431.733 202.397C431.83 202.352 431.904 202.278 431.949 202.18Z" fill="white" fill-opacity="0.1"/>
<path d="M472.337 172.36C472.546 171.911 472.106 171.477 471.658 171.679C471.561 171.724 471.486 171.799 471.441 171.896C471.24 172.345 471.673 172.779 472.121 172.577C472.218 172.532 472.292 172.457 472.337 172.36Z" fill="white" fill-opacity="0.1"/>
<path d="M754.334 337.243C754.536 336.794 754.102 336.36 753.653 336.562C753.556 336.607 753.481 336.682 753.436 336.779C753.234 337.228 753.668 337.662 754.117 337.46C754.215 337.415 754.289 337.341 754.334 337.243Z" fill="white" fill-opacity="0.1"/>
<path d="M551.654 165.899C551.445 165.45 551.885 165.016 552.333 165.218C552.43 165.263 552.505 165.338 552.55 165.435C552.751 165.884 552.318 166.318 551.871 166.116C551.774 166.071 551.699 165.996 551.654 165.899Z" fill="white" fill-opacity="0.8"/>
<path d="M794.367 260.732C794.165 260.283 794.598 259.849 795.046 260.051C795.143 260.096 795.218 260.171 795.262 260.268C795.471 260.717 795.031 261.151 794.583 260.949C794.486 260.904 794.412 260.829 794.367 260.732Z" fill="white" fill-opacity="0.1"/>
<path d="M770.802 232.403C770.593 231.954 771.033 231.52 771.481 231.722C771.578 231.767 771.652 231.842 771.697 231.939C771.899 232.388 771.466 232.822 771.018 232.62C770.921 232.576 770.846 232.501 770.802 232.403Z" fill="white" fill-opacity="0.8"/>
<path d="M814.295 304.688C814.094 304.239 814.527 303.805 814.975 304.007C815.072 304.052 815.146 304.127 815.191 304.224C815.4 304.673 814.96 305.107 814.512 304.905C814.415 304.86 814.34 304.785 814.295 304.688Z" fill="white" fill-opacity="0.1"/>
<path d="M859.387 270.181C858.938 270.384 858.504 269.949 858.706 269.5C858.751 269.403 858.826 269.328 858.923 269.283C859.372 269.081 859.806 269.515 859.604 269.964C859.559 270.062 859.485 270.137 859.387 270.181Z" fill="white" fill-opacity="0.8"/>
<path d="M835.048 237.946C834.599 238.155 834.165 237.715 834.367 237.267C834.412 237.17 834.487 237.096 834.584 237.051C835.033 236.849 835.467 237.282 835.265 237.73C835.22 237.827 835.145 237.902 835.048 237.946Z" fill="white" fill-opacity="0.1"/>
<path d="M443.196 153.162C442.994 152.713 443.428 152.279 443.877 152.481C443.974 152.526 444.049 152.601 444.094 152.698C444.296 153.147 443.862 153.581 443.413 153.379C443.316 153.334 443.241 153.259 443.196 153.162Z" fill="white" fill-opacity="0.1"/>
<path d="M630.369 294.733C630.16 294.285 630.601 293.845 631.049 294.054C631.146 294.098 631.22 294.173 631.265 294.27C631.467 294.718 631.034 295.151 630.586 294.949C630.489 294.904 630.414 294.83 630.369 294.733Z" fill="white" fill-opacity="0.1"/>
<path d="M562.006 192.24C561.803 191.791 562.238 191.357 562.687 191.559C562.784 191.604 562.859 191.679 562.904 191.776C563.106 192.225 562.672 192.659 562.223 192.457C562.125 192.412 562.05 192.337 562.006 192.24Z" fill="white" fill-opacity="0.8"/>
<path d="M509.367 205.732C509.165 205.283 509.598 204.849 510.046 205.051C510.143 205.096 510.218 205.171 510.262 205.268C510.471 205.717 510.031 206.151 509.583 205.949C509.486 205.904 509.412 205.829 509.367 205.732Z" fill="white" fill-opacity="0.1"/>
<path d="M567.785 227.59C567.576 227.141 568.017 226.707 568.465 226.909C568.562 226.954 568.636 227.029 568.681 227.126C568.883 227.575 568.45 228.009 568.002 227.807C567.905 227.763 567.83 227.688 567.785 227.59Z" fill="white" fill-opacity="0.1"/>
<path d="M457.051 223.73C456.849 223.282 457.282 222.849 457.73 223.051C457.827 223.096 457.902 223.17 457.946 223.267C458.155 223.715 457.715 224.155 457.267 223.946C457.17 223.902 457.096 223.827 457.051 223.73Z" fill="white" fill-opacity="0.1"/>
<path d="M645.125 330.254C644.923 329.805 645.357 329.371 645.806 329.573C645.904 329.618 645.978 329.693 646.023 329.79C646.225 330.239 645.791 330.673 645.342 330.471C645.245 330.426 645.17 330.351 645.125 330.254Z" fill="white" fill-opacity="0.1"/>
<path d="M898.048 210.946C897.599 211.155 897.165 210.715 897.367 210.267C897.412 210.17 897.487 210.096 897.584 210.051C898.033 209.849 898.467 210.282 898.265 210.73C898.22 210.827 898.145 210.902 898.048 210.946Z" fill="white" fill-opacity="0.1"/>
<path d="M228.054 244.732C227.845 244.283 228.285 243.849 228.733 244.051C228.83 244.096 228.904 244.171 228.949 244.268C229.151 244.717 228.718 245.151 228.27 244.949C228.173 244.904 228.098 244.829 228.054 244.732Z" fill="white" fill-opacity="0.1"/>
<path d="M433.054 390.732C432.845 390.283 433.285 389.849 433.733 390.051C433.83 390.096 433.904 390.171 433.949 390.268C434.151 390.717 433.718 391.151 433.27 390.949C433.173 390.904 433.098 390.829 433.054 390.732Z" fill="white" fill-opacity="0.1"/>
<path d="M336.054 385.732C335.845 385.283 336.285 384.849 336.733 385.051C336.83 385.096 336.904 385.171 336.949 385.268C337.151 385.717 336.718 386.151 336.27 385.949C336.173 385.904 336.098 385.829 336.054 385.732Z" fill="white" fill-opacity="0.8"/>
<path d="M429.054 353.732C428.845 353.283 429.285 352.849 429.733 353.051C429.83 353.096 429.904 353.171 429.949 353.268C430.151 353.717 429.718 354.151 429.27 353.949C429.173 353.904 429.098 353.829 429.054 353.732Z" fill="white" fill-opacity="0.1"/>
<path d="M312.215 273.883C312.006 273.434 312.447 273 312.894 273.202C312.991 273.247 313.066 273.322 313.111 273.419C313.312 273.868 312.879 274.302 312.432 274.1C312.335 274.055 312.26 273.98 312.215 273.883Z" fill="white" fill-opacity="0.1"/>
<path d="M427.928 271.8C427.719 271.351 428.159 270.917 428.607 271.119C428.704 271.164 428.779 271.239 428.824 271.336C429.025 271.785 428.592 272.219 428.144 272.017C428.047 271.972 427.973 271.898 427.928 271.8Z" fill="white" fill-opacity="0.1"/>
<path d="M360.585 332.126C360.383 331.677 360.817 331.243 361.266 331.445C361.363 331.49 361.438 331.565 361.483 331.662C361.685 332.111 361.251 332.545 360.802 332.343C360.704 332.298 360.63 332.223 360.585 332.126Z" fill="white" fill-opacity="0.1"/>
<path d="M722.949 42.732C723.151 42.283 722.718 41.8489 722.27 42.051C722.173 42.0959 722.098 42.1707 722.054 42.268C721.845 42.717 722.285 43.1511 722.733 42.949C722.83 42.9041 722.904 42.8293 722.949 42.732Z" fill="white" fill-opacity="0.1"/>
<path d="M692.949 131.732C693.151 131.283 692.718 130.849 692.27 131.051C692.173 131.096 692.098 131.171 692.054 131.268C691.845 131.717 692.285 132.151 692.733 131.949C692.83 131.904 692.904 131.829 692.949 131.732Z" fill="white" fill-opacity="0.8"/>
<path d="M598.051 84.7086C597.849 84.2595 598.282 83.8255 598.73 84.0275C598.827 84.0724 598.902 84.1473 598.946 84.2446C599.155 84.6936 598.715 85.1277 598.267 84.9256C598.17 84.8807 598.096 84.8058 598.051 84.7086Z" fill="white" fill-opacity="0.1"/>
<path d="M679.576 88.5289C679.374 88.0798 679.808 87.6458 680.257 87.8478C680.354 87.8927 680.429 87.9676 680.474 88.0649C680.676 88.5139 680.242 88.948 679.793 88.7459C679.696 88.701 679.621 88.6262 679.576 88.5289Z" fill="white" fill-opacity="0.1"/>
<path d="M729.054 116.732C728.845 116.283 729.285 115.849 729.733 116.051C729.83 116.096 729.904 116.171 729.949 116.268C730.151 116.717 729.718 117.151 729.27 116.949C729.173 116.904 729.098 116.829 729.054 116.732Z" fill="white" fill-opacity="0.1"/>
<path d="M632.054 111.732C631.845 111.283 632.285 110.849 632.733 111.051C632.83 111.096 632.904 111.171 632.949 111.268C633.151 111.717 632.718 112.151 632.27 111.949C632.173 111.904 632.098 111.829 632.054 111.732Z" fill="white" fill-opacity="0.8"/>
<path d="M725.054 79.732C724.845 79.283 725.285 78.8489 725.733 79.051C725.83 79.0959 725.904 79.1707 725.949 79.268C726.151 79.717 725.718 80.1511 725.27 79.949C725.173 79.9041 725.098 79.8293 725.054 79.732Z" fill="white" fill-opacity="0.1"/>
<path d="M656.585 58.126C656.383 57.677 656.817 57.243 657.266 57.445C657.363 57.4899 657.438 57.5648 657.483 57.662C657.685 58.1111 657.251 58.5451 656.802 58.3431C656.704 58.2982 656.63 58.2233 656.585 58.126Z" fill="white" fill-opacity="0.1"/>
<path d="M199.315 314.265C199.113 313.816 199.547 313.382 199.996 313.584C200.093 313.629 200.168 313.704 200.213 313.801C200.415 314.25 199.981 314.684 199.532 314.482C199.434 314.437 199.36 314.362 199.315 314.265Z" fill="white" fill-opacity="0.8"/>
<path d="M83.051 77.732C82.8489 77.283 83.283 76.8489 83.732 77.051C83.8293 77.0959 83.9041 77.1707 83.949 77.268C84.1511 77.717 83.717 78.1511 83.268 77.949C83.1707 77.9041 83.0959 77.8293 83.051 77.732Z" fill="white" fill-opacity="0.1"/>
<path d="M325.838 27.7134C325.636 27.2656 326.069 26.8327 326.517 27.0342C326.614 27.079 326.689 27.1537 326.734 27.2507C326.943 27.6985 326.502 28.1389 326.054 27.9299C325.957 27.8851 325.883 27.8105 325.838 27.7134Z" fill="white" fill-opacity="0.1"/>
<path d="M218.48 9.16021C218.278 8.71118 218.712 8.27713 219.161 8.4792C219.258 8.5241 219.333 8.59893 219.378 8.69622C219.58 9.14525 219.146 9.57931 218.697 9.37725C218.599 9.33235 218.525 9.2575 218.48 9.16021Z" fill="white" fill-opacity="0.1"/>
<path d="M218.054 48.732C217.845 48.283 218.285 47.8489 218.733 48.051C218.83 48.0959 218.904 48.1707 218.949 48.268C219.151 48.717 218.718 49.1511 218.27 48.949C218.173 48.9041 218.098 48.8293 218.054 48.732Z" fill="white" fill-opacity="0.1"/>
<path d="M384.054 55.732C383.845 55.283 384.285 54.8489 384.733 55.051C384.83 55.0959 384.904 55.1707 384.949 55.268C385.151 55.717 384.718 56.1511 384.27 55.949C384.173 55.9041 384.098 55.8293 384.054 55.732Z" fill="white" fill-opacity="0.1"/>
<path d="M127.051 144.732C126.849 144.283 127.283 143.849 127.732 144.051C127.829 144.096 127.904 144.171 127.949 144.268C128.151 144.717 127.717 145.151 127.268 144.949C127.171 144.904 127.096 144.829 127.051 144.732Z" fill="white" fill-opacity="0.1"/>
<path d="M74.7701 132.17C74.5685 131.721 75.0015 131.287 75.4493 131.489C75.5463 131.534 75.621 131.609 75.6657 131.706C75.8747 132.155 75.4344 132.589 74.9865 132.387C74.8895 132.342 74.8149 132.267 74.7701 132.17Z" fill="white" fill-opacity="0.1"/>
</svg>
